<svg width="59" height="48" viewBox="0 0 59 48" fill="none" xmlns="http://www.w3.org/2000/svg">
<g clip-path="url(#clip0_622_2453)">
<path d="M12.7565 0.31665C9.48017 0.31665 7.05572 3.26099 7.16429 6.45405C7.26858 9.5216 7.13311 13.4949 6.15898 16.7349C5.18193 19.9844 3.52929 22.0428 0.830078 22.3072V25.2909C3.52929 25.5553 5.18193 27.6137 6.15898 30.8634C7.13311 34.1034 7.26858 38.0763 7.16429 41.1441C7.05572 44.3367 9.48017 47.2815 12.757 47.2815H46.3285C49.605 47.2815 52.0288 44.3371 51.9203 41.1441C51.8162 38.0765 51.9514 34.1034 52.9256 30.8634C53.9033 27.6139 55.5514 25.5551 58.2507 25.2909V22.3072C55.5514 22.0428 53.9033 19.9844 52.9258 16.7349C51.9514 13.4954 51.8162 9.52183 51.9203 6.45405C52.0288 3.26145 49.605 0.31665 46.3285 0.31665H12.7561H12.7565ZM39.7594 29.2265C39.7594 33.6233 36.5654 36.2896 31.2648 36.2896H22.2412C21.9831 36.2896 21.7357 36.1843 21.5532 35.9969C21.3707 35.8095 21.2682 35.5554 21.2682 35.2904V12.3077C21.2682 12.1765 21.2933 12.0465 21.3422 11.9253C21.3911 11.804 21.4628 11.6938 21.5532 11.601C21.6436 11.5082 21.7509 11.4346 21.869 11.3843C21.987 11.3341 22.1136 11.3082 22.2414 11.3082H31.2132C35.633 11.3082 38.5336 13.7667 38.5336 17.5408C38.5336 20.1899 36.5822 22.5614 34.0963 22.9767V23.1151C37.4808 23.4962 39.7594 25.9026 39.7594 29.2265ZM30.2806 14.476H25.1358V21.9376H29.4693C32.8189 21.9376 34.6663 20.5526 34.6663 18.0769C34.6663 15.7571 33.0776 14.476 30.2806 14.476ZM25.1358 24.8983V33.121H30.4701C33.9575 33.121 35.8053 31.6842 35.8053 28.9837C35.8053 26.2828 33.9061 24.8978 30.2458 24.8978H25.1358V24.8983Z" fill="#7E13F8"/>
</g>
<defs>
<clipPath id="clip0_622_2453">
<rect width="57.4206" height="46.9805" fill="white" transform="translate(0.830078 0.31665)"/>
</clipPath>
</defs>
</svg>
