<svg width="45" height="45" viewBox="0 0 45 45" fill="none" xmlns="http://www.w3.org/2000/svg">
<g clip-path="url(#clip0_622_2446)">
<path d="M43.7077 20.4381L24.7616 1.49261C23.6712 0.401551 21.9016 0.401551 20.8095 1.49261L16.8756 5.42718L21.8662 10.4177C23.0263 10.0262 24.3559 10.2888 25.2803 11.2132C26.2094 12.1434 26.47 13.4843 26.0689 14.6483L30.8786 19.4584C32.0422 19.0572 33.3852 19.3164 34.314 20.2473C35.6134 21.5456 35.6134 23.6504 34.314 24.9494C34.0053 25.2584 33.6386 25.5034 33.2351 25.6706C32.8316 25.8378 32.3991 25.9239 31.9623 25.9239C31.5255 25.9239 31.093 25.8378 30.6894 25.6706C30.2859 25.5034 29.9193 25.2584 29.6105 24.9494C29.1466 24.4852 28.8303 23.8941 28.7016 23.2506C28.5728 22.6071 28.6373 21.9398 28.8869 21.3328L24.4017 16.8476L24.401 28.6523C24.7264 28.8126 25.0235 29.0248 25.2806 29.2807C26.5793 30.579 26.5793 32.6831 25.2806 33.9842C23.9816 35.2826 21.8761 35.2826 20.5785 33.9842C19.2798 32.6835 19.2798 30.5794 20.5785 29.2807C20.8896 28.969 21.2597 28.7225 21.6671 28.5554V16.6413C21.2594 16.4747 20.8892 16.2279 20.5785 15.9157C19.5947 14.9326 19.3578 13.4888 19.8624 12.2802L14.9424 7.36008L1.95135 20.3504C1.42724 20.8747 1.13281 21.5856 1.13281 22.327C1.13281 23.0683 1.42724 23.7792 1.95135 24.3035L20.8978 43.249C21.9889 44.34 23.7578 44.34 24.8506 43.249L43.708 24.3915C44.232 23.8671 44.5264 23.1561 44.5263 22.4147C44.5262 21.6734 44.2318 20.9624 43.7077 20.4381Z" fill="#F34F29"/>
</g>
<defs>
<clipPath id="clip0_622_2446">
<rect width="44" height="44" fill="white" transform="translate(0.830078 0.371582)"/>
</clipPath>
</defs>
</svg>
