<svg width="50" height="50" viewBox="0 0 50 50" fill="none" xmlns="http://www.w3.org/2000/svg">
<path d="M24.5309 4.52197C12.6972 4.51719 3.11255 14.0971 3.11255 25.9212C3.11255 35.2714 9.10835 43.2195 17.4584 46.1385C18.583 46.4208 18.4107 45.6217 18.4107 45.0762V41.3677C11.9172 42.1285 11.6541 37.8314 11.2186 37.1137C10.3381 35.6111 8.25659 35.2283 8.87866 34.5105C10.3573 33.7497 11.8646 34.702 13.6112 37.2812C14.8745 39.1521 17.3388 38.8363 18.5877 38.5253C18.8605 37.4008 19.4443 36.3959 20.2482 35.6159C13.5203 34.4101 10.7162 30.3044 10.7162 25.4235C10.7162 23.0549 11.4961 20.8776 13.0274 19.1215C12.0512 16.2265 13.1183 13.7478 13.2619 13.3793C16.042 13.1305 18.9323 15.3699 19.1572 15.547C20.7363 15.1211 22.5403 14.8962 24.5596 14.8962C26.5885 14.8962 28.3973 15.1307 29.9908 15.5613C30.5315 15.1498 33.2112 13.2262 35.7952 13.4606C35.9339 13.8291 36.9771 16.2504 36.0584 19.1071C37.6087 20.8681 38.3983 23.0645 38.3983 25.4379C38.3983 30.3283 35.5751 34.4388 28.828 35.6255C29.4059 36.1938 29.8647 36.8716 30.1778 37.6193C30.4908 38.3669 30.6517 39.1694 30.6511 39.98V45.3633C30.6894 45.7939 30.6511 46.2198 31.3689 46.2198C39.8434 43.3631 45.9445 35.3575 45.9445 25.926C45.9445 14.0971 36.355 4.52197 24.5309 4.52197Z" fill="white"/>
</svg>
