<svg width="34" height="49" viewBox="0 0 34 49" fill="none" xmlns="http://www.w3.org/2000/svg">
<g clip-path="url(#clip0_622_2401)">
<path fill-rule="evenodd" clip-rule="evenodd" d="M3.82674 44.4801L0.888672 9.83374H33.175L30.2336 44.4746L17.0118 48.3287L3.82674 44.4801Z" fill="#E44D26"/>
<path fill-rule="evenodd" clip-rule="evenodd" d="M17.0312 45.3817L27.7156 42.2685L30.2285 12.6658H17.0312V45.3817Z" fill="#F16529"/>
<path d="M17.0319 25.5168H11.6835L11.3142 21.165H17.0319V16.9158H6.89648L6.99356 18.0562L7.98668 29.7649H17.0319V25.5168ZM17.0319 36.5527L17.014 36.5572L12.5126 35.2795L12.2247 31.8906H8.16745L8.73431 38.5624L17.014 40.9782L17.0319 40.9726V36.5527Z" fill="#262D73"/>
<path d="M3.89258 0.417725H5.94576V2.55125H7.82599V0.417725H9.87918V6.87857H7.82599V4.71602H5.94688V6.87857H3.89369V0.417725H3.89258ZM12.5807 2.56018H10.773V0.41884H16.4449V2.5613H14.635V6.87968H12.5818V2.5613L12.5807 2.56018ZM17.3454 0.417725H19.4867L20.8035 2.6885L22.1202 0.417725H24.2626V6.87857H22.2173V3.67604L20.8035 5.97472H20.7689L19.3528 3.67493V6.87745H17.3443L17.3454 0.417725ZM25.2848 0.417725H27.3391V4.74504H30.2292V6.87968H25.2859L25.2848 0.417725Z" fill="#1F2666"/>
<path d="M17.0176 25.5168V29.7649H21.9943L21.5257 35.2773L17.0176 36.5549V40.976L25.304 38.5624L25.3642 37.8438L26.3138 26.6572L26.4131 25.5168H17.0176ZM17.0176 16.9158V21.165H26.7814L26.8617 20.2098L27.0458 18.0562L27.1418 16.9158H17.0176Z" fill="#1F2666"/>
</g>
<defs>
<clipPath id="clip0_622_2401">
<rect width="32.36" height="47.9821" fill="white" transform="translate(0.830078 0.380615)"/>
</clipPath>
</defs>
</svg>
